<svg xmlns="http://www.w3.org/2000/svg" viewBox="0 0 100 125"><path d="M46.6 55.4l-11.7-6.8c-.4-.3-1-.3-1.4 0l-11.8 6.8c-.4.2-.7.7-.7 1.2v12.9c0 .5.3.9.7 1.2l11.8 6.9c.1.1.2.1.3.1.1 0 .3.1.4.1.2 0 .5-.1.7-.2l11.7-6.9c.4-.2.7-.7.7-1.2V56.6c0-.5-.3-.9-.7-1.2zm-12.4-4l8.9 5.2-9 5-8.9-5 9-5.2zM23.8 59l9 5v9.8l-9-5.3V59zm11.8 14.9V64l8.9-4.9v9.6l-8.9 5.2zM78.3 55.2l-11.7-6.8c-.4-.3-1-.3-1.4 0l-11.8 6.8c-.1 0-.1.1-.2.1-.3.2-.5.6-.5 1.1v12.9c0 .5.3.9.7 1.2l11.8 6.9c.2.1.5.2.7.2.2 0 .5-.1.7-.2l11.7-6.9c.4-.2.7-.7.7-1.2V56.4c0-.5-.3-.9-.7-1.2zm-12.4-4l8.7 5.1-8.8 4.9-8.8-4.9 8.9-5.1zm-10.4 7.5l9 5v10l-9-5.3v-9.7zm11.8 15V63.6l8.9-4.9v9.7l-8.9 5.3zM63.1 43.2V30.3c0-.5-.3-.9-.7-1.2l-11.7-6.8c-.4-.3-1-.3-1.4 0l-11.8 6.8c-.4.2-.7.7-.7 1.2v12.9c0 .5.3.9.7 1.2l11.8 6.9c.2.1.5.2.7.2s.5-.1.7-.2l11.7-6.9c.4-.2.7-.7.7-1.2zM50 25.1l8.8 5.1-9 4.9-8.7-4.9 8.9-5.1zm-10.4 7.6l9 5v9.9l-9-5.2v-9.7zm11.8 14.9v-10l8.9-4.9v9.7l-8.9 5.2z"/></svg>