<svg xmlns="http://www.w3.org/2000/svg" xmlns:xlink="http://www.w3.org/1999/xlink" version="1.2" baseProfile="tiny" x="0px" y="0px" viewBox="0 0 56.693 70.86625" xml:space="preserve"><path d="M46.39,36.714c-3.367,0-6.107-2.74-6.107-6.108c0-3.367,2.74-6.107,6.107-6.107c3.368,0,6.108,2.74,6.108,6.107  C52.498,33.974,49.758,36.714,46.39,36.714z M46.39,27.676c-1.615,0-2.929,1.314-2.929,2.929c0,1.615,1.314,2.93,2.929,2.93  s2.93-1.314,2.93-2.93C49.319,28.99,48.005,27.676,46.39,27.676z M22.127,38.875c-0.111-0.869,0.508-1.663,1.377-1.775l0,0  c0.869-0.106,1.664,0.514,1.775,1.383l0,0l0,0l0,0c0.106,0.874-0.508,1.663-1.383,1.774l0,0c-0.064,0.006-0.132,0.011-0.196,0.011  l0,0C22.911,40.268,22.222,39.68,22.127,38.875z M21.084,33.964L21.084,33.964c-0.255-0.842,0.222-1.727,1.065-1.981l0,0  c0.837-0.255,1.721,0.222,1.981,1.065l0,0c0.249,0.837-0.222,1.727-1.065,1.975l0,0c-0.154,0.048-0.307,0.069-0.461,0.069l0,0  C21.921,35.093,21.29,34.653,21.084,33.964z M19.23,29.298L19.23,29.298c-0.387-0.784-0.069-1.738,0.715-2.13l0,0  c0.789-0.392,1.743-0.074,2.135,0.715l0,0l0,0l0,0c0.386,0.784,0.069,1.737-0.715,2.129l0,0c-0.228,0.111-0.471,0.165-0.71,0.165  l0,0C20.072,30.177,19.51,29.854,19.23,29.298z M16.624,25.007L16.624,25.007c-0.519-0.71-0.361-1.705,0.35-2.219l0,0  c0.71-0.519,1.7-0.36,2.219,0.344l0,0c0.519,0.71,0.36,1.706-0.35,2.225l0,0c-0.28,0.201-0.609,0.302-0.932,0.302l0,0  C17.419,25.659,16.937,25.431,16.624,25.007z M13.335,21.209c-0.625-0.614-0.636-1.621-0.021-2.251l0,0  c0.609-0.625,1.615-0.635,2.246-0.026l0,0c0.625,0.615,0.636,1.621,0.027,2.251l0,0c-0.313,0.318-0.726,0.477-1.139,0.477l0,0  C14.044,21.66,13.647,21.512,13.335,21.209z M9.462,18.005c-0.72-0.498-0.9-1.488-0.402-2.209l0,0c0.503-0.72,1.494-0.9,2.214-0.402  l0,0c0.72,0.503,0.9,1.494,0.397,2.214l0,0c-0.307,0.445-0.8,0.683-1.303,0.683l0,0C10.056,18.291,9.738,18.201,9.462,18.005z   M5.109,15.5c-0.795-0.376-1.133-1.319-0.763-2.114l0,0c0.371-0.795,1.319-1.139,2.114-0.768l0,0c0,0,0,0,0,0.005l0,0  c0.795,0.371,1.133,1.319,0.763,2.114l0,0c-0.27,0.572-0.842,0.911-1.441,0.911l0,0C5.559,15.648,5.326,15.6,5.109,15.5z   M22.821,43.758c-0.62-0.625-0.614-1.631,0.006-2.251l0,0l0,0l0,0c0.625-0.615,1.631-0.615,2.251,0.011l0,0  c0.615,0.625,0.609,1.626-0.011,2.245l0,0c-0.307,0.307-0.715,0.461-1.117,0.461l0,0C23.536,44.224,23.128,44.071,22.821,43.758z   M26.704,40.157c-0.509-0.721-0.334-1.711,0.382-2.22l0,0c0.72-0.503,1.711-0.328,2.214,0.387l0,0  c0.508,0.715,0.334,1.711-0.381,2.214l0,0c-0.281,0.196-0.598,0.291-0.917,0.291l0,0C27.504,40.829,27.011,40.591,26.704,40.157z   M31.137,37.254c-0.381-0.795-0.048-1.743,0.747-2.119l0,0c0.789-0.381,1.737-0.048,2.119,0.747l0,0  c0.376,0.789,0.042,1.738-0.747,2.119l0,0c-0.222,0.106-0.455,0.154-0.688,0.154l0,0C31.974,38.154,31.408,37.82,31.137,37.254z   M35.984,35.125c-0.238-0.842,0.249-1.722,1.091-1.965l0,0l0,0l0,0c0.842-0.244,1.722,0.244,1.965,1.091l0,0  c0.244,0.842-0.244,1.722-1.086,1.965h-0.005c-0.143,0.042-0.291,0.058-0.435,0.058l0,0C36.821,36.274,36.185,35.824,35.984,35.125z  "/></svg>
