<svg xmlns="http://www.w3.org/2000/svg" xmlns:xlink="http://www.w3.org/1999/xlink" version="1.1" x="0px" y="0px" viewBox="0 0 100 125" style="enable-background:new 0 0 100 100;" xml:space="preserve"><path d="M72.5,50V40c0-6.9-5.6-12.5-12.5-12.5H50v-20C50,6.1,48.9,5,47.5,5h-40C6.1,5,5,6.1,5,7.5v40C5,48.9,6.1,50,7.5,50h20v10  c0,6.9,5.6,12.5,12.5,12.5h10C50,84.9,60.1,95,72.5,95S95,84.9,95,72.5S84.9,50,72.5,50z M27.5,40v5H10V10h35v17.5h-5  C33.1,27.5,27.5,33.1,27.5,40z M40,67.5c-4.1,0-7.5-3.4-7.5-7.5V40c0-4.1,3.4-7.5,7.5-7.5h20c4.1,0,7.5,3.4,7.5,7.5v10.6  c-8.4,1.9-15,8.5-16.9,16.9H40z M72.5,90C62.9,90,55,82.1,55,72.5S62.9,55,72.5,55S90,62.9,90,72.5S82.1,90,72.5,90z"/></svg>
