<svg xmlns="http://www.w3.org/2000/svg" xmlns:xlink="http://www.w3.org/1999/xlink" version="1.1" x="0px" y="0px" viewBox="-949 951 100 125" style="enable-background:new -949 951 100 100;" xml:space="preserve"><switch><g xmlns:i="http://ns.adobe.com/AdobeIllustrator/10.0/" i:extraneous="self"><g><path d="M-853.3,973.6c2-2,2-5.3,0-7.4l-10.9-10.9c-2-2-5.3-2-7.4,0l-4.5,4.5l18.3,18.3L-853.3,973.6z"/><path d="M-852.1,1027.7l-27.7-27.7l19.4-19.4l-18.3-18.3l-19.4,19.4l-27.7-27.7c-0.7-0.7-1.9-0.7-2.7,0l-17.6,17.6     c-0.4,0.4-0.6,0.8-0.6,1.3s0.2,1,0.6,1.3l27.7,27.7l-22,22c-0.6,0.6-1,1.3-1.1,2.1l-3.6,17.5c-0.2,0.8,0,1.6,0.4,2.2     c0.6,0.9,1.8,1.4,2.8,1.2l17.6-3.6c0.8-0.2,1.6-0.6,2.1-1.1l22-22l27.7,27.7c0.4,0.4,0.9,0.6,1.3,0.6s1-0.2,1.3-0.6l17.6-17.6     c0.4-0.4,0.6-0.8,0.6-1.3C-851.5,1028.5-851.7,1028-852.1,1027.7z M-924.7,1039.9l-11.1,2.3l-4.3-4.3l2.3-11.1l0.1-0.1l3.8,0.7     l-0.1,3.3c0,0.3,0.2,0.5,0.5,0.5l4.7-0.2l-0.2,4.7c0,0.3,0.2,0.5,0.5,0.5l3.3-0.1L-924.7,1039.9L-924.7,1039.9z M-941.9,973     l14.9-14.9l4.7,4.7l-7.4,7.4c-0.7,0.7-0.7,1.9,0,2.7c0.4,0.4,0.9,0.6,1.3,0.6s1-0.2,1.3-0.6l7.4-7.4l4.7,4.7l-7.4,7.4     c-0.7,0.7-0.7,1.9,0,2.7c0.4,0.4,0.9,0.6,1.3,0.6s1-0.2,1.3-0.6l7.4-7.4l4.7,4.7l-7.4,7.4c-0.7,0.7-0.7,1.9,0,2.7     c0.4,0.4,0.9,0.6,1.3,0.6c0.5,0,1-0.2,1.3-0.6l7.4-7.4l4.2,4.2l-14.9,14.9L-941.9,973z M-871,1043.9l-26.3-26.3l14.9-14.9     l4.2,4.2l-7.4,7.4c-0.7,0.7-0.7,1.9,0,2.7c0.4,0.4,0.9,0.6,1.3,0.6s1-0.2,1.3-0.6l7.4-7.4l4.7,4.7l-7.4,7.4     c-0.7,0.7-0.7,1.9,0,2.7c0.4,0.4,0.9,0.6,1.3,0.6s1-0.2,1.3-0.6l7.4-7.4l4.7,4.7l-7.4,7.4c-0.7,0.7-0.7,1.9,0,2.7     c0.4,0.4,0.9,0.6,1.3,0.6s1-0.2,1.3-0.6l7.4-7.4l4.7,4.7L-871,1043.9z"/></g></g></switch></svg>
