<svg xmlns="http://www.w3.org/2000/svg" xmlns:xlink="http://www.w3.org/1999/xlink" version="1.1" x="0px" y="0px" viewBox="0 0 100 125" enable-background="new 0 0 100 100" xml:space="preserve"><g><path fill="#000000" d="M68,32H32v36h36V32z M64,64H36V36h28V64z"/><path fill="#000000" d="M64,84c0,1.104,0.896,2,2,2h6c7.72,0,14-6.28,14-14v-9.172l4.586,4.586c0.78,0.781,2.048,0.781,2.828,0   c0.781-0.781,0.781-2.047,0-2.828l-8-8c-0.78-0.781-2.048-0.781-2.828,0l-8,8c-0.781,0.781-0.781,2.047,0,2.828   C74.976,67.805,75.488,68,76,68s1.024-0.195,1.414-0.586L82,62.828V72c0,5.514-4.486,10-10,10h-6C64.896,82,64,82.896,64,84z"/><path fill="#000000" d="M6.586,35.414l8,8C14.977,43.805,15.488,44,16,44s1.023-0.195,1.414-0.586l8-8   c0.781-0.781,0.781-2.047,0-2.828c-0.781-0.781-2.047-0.781-2.828,0L18,37.172V28c0-5.514,4.486-10,10-10h6c1.104,0,2-0.896,2-2   s-0.896-2-2-2h-6c-7.72,0-14,6.28-14,14v9.172l-4.586-4.586c-0.781-0.781-2.047-0.781-2.828,0   C5.805,33.367,5.805,34.633,6.586,35.414z"/></g></svg>
