<svg xmlns="http://www.w3.org/2000/svg" xmlns:xlink="http://www.w3.org/1999/xlink" version="1.1" x="0px" y="0px" viewBox="0 0 24 30" enable-background="new 0 0 24 24" xml:space="preserve"><g><path d="M21.333,23.833H2.667c-1.378,0-2.5-1.121-2.5-2.5V2.667c0-1.379,1.122-2.5,2.5-2.5h18.667c1.378,0,2.5,1.121,2.5,2.5   v18.666C23.833,22.712,22.712,23.833,21.333,23.833z M2.667,1.167c-0.827,0-1.5,0.673-1.5,1.5v18.666c0,0.827,0.673,1.5,1.5,1.5   h18.667c0.827,0,1.5-0.673,1.5-1.5V2.667c0-0.827-0.673-1.5-1.5-1.5H2.667z"/><g><path d="M18.914,15.494c-0.128,0-0.256-0.049-0.354-0.146c-0.195-0.195-0.195-0.512,0-0.707L21.201,12L18.56,9.359    c-0.195-0.195-0.195-0.512,0-0.707s0.512-0.195,0.707,0l2.994,2.994c0.195,0.195,0.195,0.512,0,0.707l-2.994,2.994    C19.169,15.445,19.042,15.494,18.914,15.494z"/><path d="M21.908,12.5h-8.346c-0.276,0-0.5-0.224-0.5-0.5s0.224-0.5,0.5-0.5h8.346c0.276,0,0.5,0.224,0.5,0.5    S22.184,12.5,21.908,12.5z"/></g><g><path d="M5.087,15.494c-0.128,0-0.256-0.049-0.354-0.146l-2.995-2.994C1.645,12.26,1.592,12.133,1.592,12s0.053-0.26,0.146-0.354    l2.995-2.994c0.195-0.195,0.512-0.195,0.707,0s0.195,0.512,0,0.707L2.799,12l2.641,2.641c0.195,0.195,0.195,0.512,0,0.707    C5.343,15.445,5.215,15.494,5.087,15.494z"/><path d="M10.438,12.5H2.092c-0.276,0-0.5-0.224-0.5-0.5s0.224-0.5,0.5-0.5h8.346c0.276,0,0.5,0.224,0.5,0.5    S10.715,12.5,10.438,12.5z"/></g></g></svg>
