<svg xmlns="http://www.w3.org/2000/svg" viewBox="0 0 117.2 116.2"><g fill="#CCC"><path d="M74.8 95H28c-2.4 0-4.9-1.5-4.9-3.9V68c0-2.4 1.6-4 4-4h48c2.4 0 4 1.6 4 4v22.6c.1 2.4-1.9 4.4-4.3 4.4zM56.4 53H27.5c-2.1 0-4.3-2.3-4.3-4.3V24.9c0-2.1 2.2-3.8 4.3-3.8h28.9c2.1 0 3.8 1.7 3.8 3.8v23.7c0 2.1-1.7 4.4-3.8 4.4z"/></g><path fill="#CCC" d="M101 116.2H16c-8.8 0-16-7.2-16-16v-84C0 7.4 7.4 0 16.2 0h85c8.8 0 15.7 7.1 15.7 15.9v3.6c0 2.4-1.9 4.3-4.3 4.3s-4.3-1.9-4.3-4.3v-3.6c0-4-3-6.9-7.1-6.9h-85c-4 0-7.2 3.2-7.2 7.2v85c0 4 3 7 7 7h85c4 0 7.2-4.2 7.2-8.2V59c0-4-3-7-7-7h-18c-2.4 0-4-1.7-4-4.1 0-2.4 1.6-4.9 4-4.9h18c8.8 0 16 7.2 16 16v41c0 8.8-7.4 16.2-16.2 16.2z"/></svg>