<svg xmlns:rdf="http://www.w3.org/1999/02/22-rdf-syntax-ns#" xmlns:svg="http://www.w3.org/2000/svg" xmlns="http://www.w3.org/2000/svg" xmlns:xlink="http://www.w3.org/1999/xlink" viewBox="0 0 512.00001 640.0000124999999" version="1.1" x="0px" y="0px"><g transform="translate(0,-540.36216)"><path style="color:#000000;font-style:normal;font-variant:normal;font-weight:normal;font-stretch:normal;font-size:medium;line-height:normal;font-family:sans-serif;text-indent:0;text-align:start;text-decoration:none;text-decoration-line:none;text-decoration-style:solid;text-decoration-color:#000000;letter-spacing:normal;word-spacing:normal;text-transform:none;direction:ltr;block-progression:tb;writing-mode:lr-tb;baseline-shift:baseline;text-anchor:start;white-space:normal;clip-rule:nonzero;display:inline;overflow:visible;visibility:visible;opacity:1;isolation:auto;mix-blend-mode:normal;color-interpolation:sRGB;color-interpolation-filters:linearRGB;solid-color:#000000;solid-opacity:1;fill:#000000;fill-opacity:1;fill-rule:evenodd;stroke:none;stroke-width:2;stroke-linecap:butt;stroke-linejoin:miter;stroke-miterlimit:4;stroke-dasharray:none;stroke-dashoffset:0;stroke-opacity:1;color-rendering:auto;image-rendering:auto;shape-rendering:auto;text-rendering:auto;enable-background:accumulate" clip-path="none" d="M 92.792969 1 C 76.538969 1 63.142578 14.396441 63.142578 30.650391 L 63.142578 481.35156 C 63.142578 497.60556 76.538969 511 92.792969 511 L 419.20703 511 C 435.46103 511 448.85742 497.60556 448.85742 481.35156 L 448.85742 127.44336 L 446.01562 124.54688 L 324.80664 1 L 92.792969 1 z M 92.792969 20.863281 L 310.70508 20.863281 L 310.70508 111.28906 C 310.70508 127.66254 323.99953 141.43364 340.55273 141.43359 L 428.99414 141.43359 L 428.99414 481.35156 C 428.99414 486.94536 424.80083 491.13867 419.20703 491.13867 L 92.792969 491.13867 C 87.199169 491.13867 83.005859 486.94536 83.005859 481.35156 L 83.005859 30.650391 C 83.005859 25.056601 87.199169 20.863281 92.792969 20.863281 z M 330.56836 35.236328 L 415.26953 121.57031 L 340.55273 121.57031 C 335.25823 121.57033 330.56846 116.76328 330.56836 111.28906 L 330.56836 35.236328 z M 124.42188 47.574219 C 124.35287 47.574219 124.2858 47.584938 124.2168 47.585938 L 293.37305 145.24805 C 292.64965 144.11235 291.95757 142.95381 291.32227 141.75781 L 128.19531 47.576172 L 124.42188 47.576172 L 124.42188 47.574219 z M 139.51562 47.574219 L 287.71094 133.13672 C 287.42084 132.22392 287.15176 131.30063 286.91016 130.36523 L 143.51172 47.574219 L 139.51562 47.574219 z M 154.83398 47.574219 L 285.56445 123.05273 C 285.47245 122.24703 285.4017 121.43459 285.3457 120.61719 L 158.83008 47.574219 L 154.83398 47.574219 z M 170.15039 47.574219 L 285.20117 114 L 285.20117 111.69141 L 174.14844 47.574219 L 170.15039 47.574219 z M 185.46875 47.574219 L 285.20117 105.1543 L 285.20117 102.84961 L 189.4668 47.574219 L 185.46875 47.574219 z M 200.78711 47.574219 L 285.20117 96.3125 L 285.20117 94.003906 L 204.7832 47.574219 L 200.78711 47.574219 z M 216.10352 47.574219 L 285.20117 87.466797 L 285.20117 85.162109 L 220.10156 47.574219 L 216.10352 47.574219 z M 231.41992 47.574219 L 285.20117 78.625 L 285.20117 76.316406 L 235.41602 47.574219 L 231.41992 47.574219 z M 246.73828 47.574219 L 285.20117 69.783203 L 285.20117 67.474609 L 250.73438 47.574219 L 246.73828 47.574219 z M 262.05469 47.574219 L 285.20117 60.9375 L 285.20117 58.628906 L 266.05273 47.574219 L 262.05469 47.574219 z M 277.37109 47.574219 L 285.20117 52.095703 L 285.20117 49.787109 L 281.36914 47.574219 L 277.37109 47.574219 z M 116.61719 49.732422 C 115.98099 50.112122 115.36807 50.524734 114.79688 50.990234 L 402.80273 217.26953 L 402.80273 214.96289 L 313.89844 163.63281 C 311.79624 162.60021 309.77201 161.43804 307.84961 160.14062 L 116.61719 49.732422 z M 111.10938 55.400391 C 110.78628 55.982191 110.50557 56.590797 110.25977 57.216797 L 402.80273 226.11328 L 402.80273 223.80664 L 111.10938 55.400391 z M 109.19727 63.136719 L 109.19727 65.445312 L 402.80273 234.95703 L 402.80273 232.65039 L 109.19727 63.136719 z M 109.19727 71.978516 L 109.19727 74.287109 L 402.80273 243.80078 L 402.80273 241.49219 L 109.19727 71.978516 z M 109.19727 80.824219 L 109.19727 83.132812 L 393.25195 247.13086 L 397.25195 247.13086 L 109.19727 80.824219 z M 109.19727 89.666016 L 109.19727 91.974609 L 377.93555 247.13086 L 381.93359 247.13086 L 109.19727 89.666016 z M 109.19727 98.511719 L 109.19727 100.82031 L 362.61719 247.13086 L 366.61523 247.13086 L 109.19727 98.511719 z M 109.19727 107.35352 L 109.19727 109.66211 L 347.29883 247.13086 L 351.29883 247.13086 L 109.19727 107.35352 z M 109.19727 116.19922 L 109.19727 118.50781 L 331.98438 247.13086 L 335.98047 247.13086 L 109.19727 116.19922 z M 109.19727 125.04102 L 109.19727 127.34961 L 316.66602 247.13086 L 320.66211 247.13086 L 109.19727 125.04102 z M 109.19727 133.88672 L 109.19727 136.19531 L 301.34766 247.13086 L 305.34375 247.13086 L 109.19727 133.88672 z M 109.19727 142.72852 L 109.19727 145.03711 L 286.03125 247.13086 L 290.02734 247.13086 L 109.19727 142.72852 z M 109.19727 151.57031 L 109.19727 153.87891 L 270.71484 247.13086 L 274.71289 247.13086 L 109.19727 151.57031 z M 109.19727 160.41602 L 109.19727 162.72461 L 255.39453 247.13086 L 259.39258 247.13086 L 109.19727 160.41602 z M 334.31641 168.88672 L 402.80273 208.42578 L 402.80273 206.12109 L 338.4375 168.95703 L 337.0957 168.95703 C 336.1621 168.95703 335.23631 168.93332 334.31641 168.88672 z M 349.75586 168.95703 L 402.80273 199.58398 L 402.80273 197.27539 L 353.75391 168.95703 L 349.75586 168.95703 z M 365.07422 168.95703 L 402.80273 190.74023 L 402.80273 188.43359 L 369.07031 168.95703 L 365.07422 168.95703 z M 380.39062 168.95703 L 402.80273 181.89648 L 402.80273 179.58789 L 384.38867 168.95703 L 380.39062 168.95703 z M 395.70898 168.95703 L 402.80273 173.05273 L 402.80273 170.74609 L 399.70703 168.95703 L 395.70898 168.95703 z M 109.19727 169.25781 L 109.19727 171.56641 L 240.07812 247.13086 L 244.07617 247.13086 L 109.19727 169.25781 z M 109.19727 178.10352 L 109.19727 180.41211 L 224.75781 247.13086 L 228.75781 247.13086 L 109.19727 178.10352 z M 109.19727 186.94531 L 109.19727 189.25391 L 209.44336 247.13086 L 213.44141 247.13086 L 109.19727 186.94531 z M 109.19727 195.79102 L 109.19727 198.09961 L 194.12305 247.13086 L 198.12109 247.13086 L 109.19727 195.79102 z M 109.19727 204.63281 L 109.19727 206.94141 L 178.80859 247.13086 L 182.80664 247.13086 L 109.19727 204.63281 z M 109.19727 213.47852 L 109.19727 215.78516 L 163.49023 247.13086 L 167.48438 247.13086 L 109.19727 213.47852 z M 109.19727 222.32031 L 109.19727 224.62891 L 148.17188 247.13086 L 152.16992 247.13086 L 109.19727 222.32031 z M 109.19727 231.16211 L 109.19727 233.47266 L 132.85352 247.13086 L 136.85547 247.13086 L 109.19727 231.16211 z M 109.19727 240.00586 L 109.19727 242.31641 L 117.53711 247.13086 L 121.53906 247.13086 L 109.19727 240.00586 z M 144.33398 293.35352 C 135.81185 293.35352 128.93652 296.16243 123.70703 301.7793 C 118.47754 307.36849 115.86133 315.22656 115.86133 325.35352 C 115.86133 334.92708 118.46224 342.48177 123.66406 348.01562 C 128.86589 353.52181 135.50651 356.27344 143.58594 356.27344 C 150.11589 356.27344 155.49902 354.66862 159.73242 351.45898 C 163.99349 348.22168 167.03711 343.2832 168.86328 336.64258 L 156.95117 332.86523 C 155.92741 337.31999 154.23861 340.58496 151.88672 342.66016 C 149.53483 344.73535 146.72786 345.77344 143.46289 345.77344 C 139.03581 345.77344 135.4388 344.14193 132.67188 340.87695 C 129.90495 337.61198 128.52148 332.13346 128.52148 324.44141 C 128.52148 317.19206 129.91829 311.94824 132.71289 308.71094 C 135.53516 305.47363 139.20085 303.85547 143.71094 303.85547 C 146.97591 303.85547 149.74284 304.76758 152.01172 306.59375 C 154.30827 308.41992 155.81576 310.91016 156.53516 314.06445 L 168.69727 311.16016 C 167.3138 306.29036 165.23763 302.55404 162.4707 299.95312 C 157.82227 295.55371 151.77702 293.35352 144.33398 293.35352 z M 314.29297 293.35352 C 309.61686 293.35352 305.61719 294.05957 302.29688 295.4707 C 299.00423 296.88184 296.47396 298.94271 294.70312 301.6543 C 292.95996 304.33822 292.08789 307.23112 292.08789 310.33008 C 292.08789 315.14453 293.95605 319.22428 297.69141 322.57227 C 300.34766 324.95182 304.96745 326.95931 311.55273 328.5918 C 316.67155 329.86458 319.94987 330.75 321.38867 331.24805 C 323.49154 331.99512 324.95898 332.88053 325.78906 333.9043 C 326.64681 334.90039 327.07617 336.11784 327.07617 337.55664 C 327.07617 339.79785 326.06478 341.76139 324.04492 343.44922 C 322.05273 345.10938 319.07975 345.93945 315.12305 345.93945 C 311.3877 345.93945 308.41276 344.9987 306.19922 343.11719 C 304.01335 341.23568 302.5612 338.28939 301.8418 334.27734 L 289.88867 335.43945 C 290.69108 342.24609 293.15267 347.43457 297.27539 351.00391 C 301.39811 354.54557 307.30599 356.31641 314.99805 356.31641 C 320.28288 356.31641 324.69661 355.58171 328.23828 354.11523 C 331.77995 352.62109 334.51823 350.35221 336.45508 347.30859 C 338.39193 344.26497 339.36133 341 339.36133 337.51367 C 339.36133 333.66764 338.5446 330.44466 336.91211 327.84375 C 335.30729 325.21517 333.0651 323.1543 330.1875 321.66016 C 327.33757 320.13835 322.92578 318.6709 316.94922 317.25977 C 310.97266 315.84863 307.20964 314.49382 305.66016 313.19336 C 304.44271 312.1696 303.83398 310.9388 303.83398 309.5 C 303.83398 307.92285 304.48275 306.66341 305.7832 305.72266 C 307.80306 304.25618 310.59863 303.52344 314.16797 303.52344 C 317.62663 303.52344 320.21419 304.21419 321.92969 305.59766 C 323.67285 306.95345 324.80632 309.19564 325.33203 312.32227 L 337.61719 311.78125 C 337.4235 306.19206 335.38932 301.72493 331.51562 298.37695 C 327.6696 295.02897 321.92969 293.35352 314.29297 293.35352 z M 371.07031 293.35352 C 366.39421 293.35352 362.39453 294.05957 359.07422 295.4707 C 355.78158 296.88184 353.2513 298.94271 351.48047 301.6543 C 349.7373 304.33822 348.86523 307.23112 348.86523 310.33008 C 348.86523 315.14453 350.7334 319.22428 354.46875 322.57227 C 357.125 324.95182 361.74479 326.95931 368.33008 328.5918 C 373.44889 329.86458 376.72721 330.75 378.16602 331.24805 C 380.26888 331.99512 381.73633 332.88053 382.56641 333.9043 C 383.42415 334.90039 383.85352 336.11784 383.85352 337.55664 C 383.85352 339.79785 382.84212 341.76139 380.82227 343.44922 C 378.83008 345.10938 375.8571 345.93945 371.90039 345.93945 C 368.16504 345.93945 365.1901 344.9987 362.97656 343.11719 C 360.79069 341.23568 359.33854 338.28939 358.61914 334.27734 L 346.66602 335.43945 C 347.46842 342.24609 349.93001 347.43457 354.05273 351.00391 C 358.17546 354.54557 364.08333 356.31641 371.77539 356.31641 C 377.06022 356.31641 381.47396 355.58171 385.01562 354.11523 C 388.55729 352.62109 391.29557 350.35221 393.23242 347.30859 C 395.16927 344.26497 396.13867 341 396.13867 337.51367 C 396.13867 333.66764 395.32194 330.44466 393.68945 327.84375 C 392.08464 325.21517 389.84245 323.1543 386.96484 321.66016 C 384.11491 320.13835 379.70312 318.6709 373.72656 317.25977 C 367.75 315.84863 363.98698 314.49382 362.4375 313.19336 C 361.22005 312.1696 360.61133 310.9388 360.61133 309.5 C 360.61133 307.92285 361.26009 306.66341 362.56055 305.72266 C 364.5804 304.25618 367.37598 303.52344 370.94531 303.52344 C 374.40397 303.52344 376.99154 304.21419 378.70703 305.59766 C 380.4502 306.95345 381.58366 309.19564 382.10938 312.32227 L 394.39453 311.78125 C 394.20085 306.19206 392.16667 301.72493 388.29297 298.37695 C 384.44694 295.02897 378.70703 293.35352 371.07031 293.35352 z M 248.92383 294.39258 L 225.22461 355.23633 L 238.25781 355.23633 L 243.2793 341.41602 L 267.59961 341.41602 L 272.91211 355.23633 L 286.27734 355.23633 L 261.91406 294.39258 L 248.92383 294.39258 z M 179.77734 294.89062 L 179.77734 355.23633 L 222.60938 355.23633 L 222.60938 344.98438 L 192.0625 344.98438 L 192.0625 294.89062 L 179.77734 294.89062 z M 255.27344 308.58594 L 263.6582 331.16406 L 247.05664 331.16406 L 255.27344 308.58594 z M 117.2207 406.13086 L 218.1875 464.42578 L 222.18555 464.42578 L 121.2168 406.13086 L 117.2207 406.13086 z M 132.53906 406.13086 L 233.50586 464.42578 L 237.50391 464.42578 L 136.53516 406.13086 L 132.53906 406.13086 z M 147.85352 406.13086 L 248.82227 464.42578 L 252.81836 464.42578 L 151.85156 406.13086 L 147.85352 406.13086 z M 163.16992 406.13086 L 264.13867 464.42578 L 268.13672 464.42578 L 167.16992 406.13086 L 163.16992 406.13086 z M 178.48828 406.13086 L 279.45703 464.42578 L 283.45508 464.42578 L 182.48633 406.13086 L 178.48828 406.13086 z M 193.80469 406.13086 L 294.77344 464.42578 L 298.77148 464.42578 L 197.80469 406.13086 L 193.80469 406.13086 z M 209.12305 406.13086 L 310.0918 464.42578 L 314.08789 464.42578 L 213.12109 406.13086 L 209.12305 406.13086 z M 224.44141 406.13086 L 325.4082 464.42578 L 329.40625 464.42578 L 228.43945 406.13086 L 224.44141 406.13086 z M 239.75781 406.13086 L 340.72656 464.42578 L 344.72461 464.42578 L 243.75586 406.13086 L 239.75781 406.13086 z M 255.07617 406.13086 L 356.04492 464.42578 L 360.04102 464.42578 L 259.07422 406.13086 L 255.07617 406.13086 z M 270.39453 406.13086 L 371.36328 464.42578 L 375.35938 464.42578 L 274.39258 406.13086 L 270.39453 406.13086 z M 285.70898 406.13086 L 386.67969 464.42578 L 387.57617 464.42578 C 388.48967 464.42578 389.37965 464.32888 390.24805 464.17578 L 289.71094 406.13086 L 285.70898 406.13086 z M 301.02734 406.13086 L 396.71289 461.375 C 397.27969 460.9498 397.82497 460.49489 398.32617 459.99609 L 305.0293 406.13086 L 301.02734 406.13086 z M 316.3457 406.13086 L 401.52539 455.30859 C 401.79489 454.69151 402.02003 454.05159 402.20703 453.39453 L 320.34375 406.13086 L 316.3457 406.13086 z M 331.66211 406.13086 L 402.80273 447.20312 L 402.80273 444.89453 L 335.66211 406.13086 L 331.66211 406.13086 z M 346.98047 406.13086 L 402.80273 438.35938 L 402.80273 436.05078 L 350.98047 406.13086 L 346.98047 406.13086 z M 362.29883 406.13086 L 402.80273 429.51562 L 402.80273 427.20703 L 366.29688 406.13086 L 362.29883 406.13086 z M 377.61719 406.13086 L 402.80273 420.67188 L 402.80273 418.36328 L 381.61523 406.13086 L 377.61719 406.13086 z M 392.93555 406.13086 L 402.80273 411.82812 L 402.80273 409.51953 L 396.93359 406.13086 L 392.93555 406.13086 z M 109.19727 408.03516 L 109.19727 410.3418 L 202.87109 464.42578 L 206.86719 464.42578 L 109.19727 408.03516 z M 109.19727 416.87891 L 109.19727 419.18555 L 187.55273 464.42578 L 191.54883 464.42578 L 109.19727 416.87891 z M 109.19727 425.72266 L 109.19727 428.0293 L 172.23438 464.42578 L 176.23242 464.42578 L 109.19727 425.72266 z M 109.19727 434.56641 L 109.19727 436.87305 L 156.91602 464.42578 L 160.91406 464.42578 L 109.19727 434.56641 z M 109.19727 443.41016 L 109.19727 445.7168 L 141.59961 464.42578 L 145.59766 464.42578 L 109.19727 443.41016 z M 109.55273 452.45703 C 109.76613 453.44144 110.07224 454.3887 110.46484 455.29102 L 126.28125 464.42578 L 130.2793 464.42578 L 109.55273 452.45703 z " transform="translate(0,540.36216)"/></g></svg>
