<svg xmlns="http://www.w3.org/2000/svg" xmlns:xlink="http://www.w3.org/1999/xlink" version="1.1" x="0px" y="0px" viewBox="0 0 29 37.5" xml:space="preserve"><g transform="translate(-390 -740)"><g xmlns="http://www.w3.org/2000/svg" xmlns:xlink="http://www.w3.org/1999/xlink"><rect x="404" y="744" width="1" height="3"/><rect x="404" y="748" width="1" height="3"/><rect x="404" y="752" width="1" height="3"/><rect x="404" y="756" width="1" height="3"/><rect x="404" y="760" width="1" height="3"/><rect x="404" y="764" width="1" height="3"/><polygon points="393,746 402,746 402,745 392,745 392,766 402,766 402,765 393,765   "/><rect x="394" y="747" width="8" height="17"/><polygon points="416,765 407,765 407,766 417,766 417,745 407,745 407,746 416,746   "/><rect x="407" y="747" width="8" height="17"/></g></g></svg>
