<svg xmlns="http://www.w3.org/2000/svg" xmlns:xlink="http://www.w3.org/1999/xlink" version="1.1" x="0px" y="0px" viewBox="0 0 100 125" style="enable-background:new 0 0 100 100;" xml:space="preserve"><path d="M92.5,20h-55c-1.4,0-2.5,1.1-2.5,2.5s1.1,2.5,2.5,2.5h55c1.4,0,2.5-1.1,2.5-2.5S93.9,20,92.5,20z"/><path d="M37.5,40h35c1.4,0,2.5-1.1,2.5-2.5S73.9,35,72.5,35h-35c-1.4,0-2.5,1.1-2.5,2.5S36.1,40,37.5,40z"/><path d="M92.5,50h-55c-1.4,0-2.5,1.1-2.5,2.5s1.1,2.5,2.5,2.5h55c1.4,0,2.5-1.1,2.5-2.5S93.9,50,92.5,50z"/><path d="M37.5,70h35c1.4,0,2.5-1.1,2.5-2.5S73.9,65,72.5,65h-35c-1.4,0-2.5,1.1-2.5,2.5S36.1,70,37.5,70z"/><path d="M92.5,80h-55c-1.4,0-2.5,1.1-2.5,2.5s1.1,2.5,2.5,2.5h55c1.4,0,2.5-1.1,2.5-2.5S93.9,80,92.5,80z"/><path d="M5.7,64.3C6.2,64.8,6.9,65,7.5,65s1.3-0.2,1.8-0.7l10-10c1-1,1-2.6,0-3.5l-10-10c-1-1-2.6-1-3.5,0c-1,1-1,2.6,0,3.5l8.2,8.2  l-8.2,8.2C4.8,61.7,4.8,63.3,5.7,64.3z"/><path d="M30,92.5v-80c0-1.4-1.1-2.5-2.5-2.5S25,11.1,25,12.5v80c0,1.4,1.1,2.5,2.5,2.5S30,93.9,30,92.5z"/></svg>
