<svg xmlns="http://www.w3.org/2000/svg" xmlns:xlink="http://www.w3.org/1999/xlink" version="1.1" x="0px" y="0px" viewBox="0 0 100 125" style="enable-background:new 0 0 100 100;" xml:space="preserve"><path d="M92.5,20h-85C6.1,20,5,21.1,5,22.5S6.1,25,7.5,25h85c1.4,0,2.5-1.1,2.5-2.5S93.9,20,92.5,20z"/><path d="M92.5,35h-65c-1.4,0-2.5,1.1-2.5,2.5s1.1,2.5,2.5,2.5h65c1.4,0,2.5-1.1,2.5-2.5S93.9,35,92.5,35z"/><path d="M92.5,50h-65c-1.4,0-2.5,1.1-2.5,2.5s1.1,2.5,2.5,2.5h65c1.4,0,2.5-1.1,2.5-2.5S93.9,50,92.5,50z"/><path d="M92.5,65h-65c-1.4,0-2.5,1.1-2.5,2.5s1.1,2.5,2.5,2.5h65c1.4,0,2.5-1.1,2.5-2.5S93.9,65,92.5,65z"/><path d="M92.5,80h-85C6.1,80,5,81.1,5,82.5S6.1,85,7.5,85h85c1.4,0,2.5-1.1,2.5-2.5S93.9,80,92.5,80z"/><path d="M5.7,64.3C6.2,64.8,6.9,65,7.5,65s1.3-0.2,1.8-0.7l10-10c1-1,1-2.6,0-3.5l-10-10c-1-1-2.6-1-3.5,0c-1,1-1,2.6,0,3.5l8.2,8.2  l-8.2,8.2C4.8,61.7,4.8,63.3,5.7,64.3z"/></svg>
