<svg xmlns="http://www.w3.org/2000/svg" width="50" height="50" clip-rule="evenodd" fill-rule="evenodd" stroke-linecap="round" stroke-linejoin="round" stroke-miterlimit="1"><g fill="#f95b26"><path d="M31.224 38.994h-17.48c-.87 0-1.652-.706-1.652-1.677v-8.562c0-.883.696-1.677 1.652-1.677h17.48c.87 0 1.653.706 1.653 1.677v8.65c-.087.883-.783 1.589-1.653 1.589zM24.354 22.93H13.571c-.783 0-1.392-.619-1.392-1.413v-9.004c0-.794.609-1.412 1.392-1.412h10.783c.783 0 1.392.618 1.392 1.412v9.004c0 .794-.61 1.412-1.392 1.412z"/></g><path d="M41.051 47.115H9.396c-3.218 0-5.913-2.737-5.913-6.003V8.982c0-3.265 2.695-6.002 5.913-6.002h31.655c3.218 0 5.914 2.737 5.914 6.003v1.324a1.57 1.57 0 0 1-1.565 1.589 1.57 1.57 0 0 1-1.566-1.59V8.984c0-1.5-1.217-2.737-2.696-2.737H9.396C7.918 6.246 6.7 7.482 6.7 8.983v32.13c0 1.5 1.218 2.736 2.696 2.736h31.655c1.479 0 2.696-1.236 2.696-2.737V25.49c0-1.5-1.217-2.736-2.696-2.736H34.53a1.57 1.57 0 0 1-1.565-1.59 1.57 1.57 0 0 1 1.565-1.588h6.522c3.305 0 5.914 2.736 5.914 6.002v15.624c0 3.177-2.696 5.914-5.914 5.914z" fill="#f95b26"/></svg>
