<svg xmlns="http://www.w3.org/2000/svg" width="495.1000061035156" height="564"><rect id="backgroundrect" width="100%" height="100%" x="0" y="0" fill="none" stroke="none"/><g class="currentLayer"><title>Layer 1</title><path fill="#82878c" d="M482.6 131.8L260.1 3.4c-7.7-4.5-17.3-4.5-25 0L12.5 131.8C4.8 136.3 0 144.6 0 153.5v257c0 8.9 4.8 17.2 12.5 21.7l222.6 128.5c3.9 2.2 8.2 3.3 12.5 3.3s8.6-1.1 12.5-3.3l222.5-128.5c7.7-4.5 12.5-12.7 12.5-21.7v-257c0-8.9-4.7-17.2-12.5-21.7zm-37.5 155.1l-76.8 44.3v-90.1l76.8-44.3v90.1zm-25-133.4l-75.4 43.6-77.5-44.7 76-43.2 76.9 44.3zM325.7 208l-78.1 45.1-78.3-45.2 78.7-44.7 77.7 44.8zM50 196.8l76.1 43.9v87.9L50 284.7v-87.9zm95.1 54.9l77.5 44.7v87.9l-77.5-44.7v-87.9zm77.5 154.6v89.4L145.1 451v-89.4l77.5 44.7zm50 2.2l76.8-44.3v87.2l-76.8 44.3v-87.2zm0-22v-90.1l76.8-44.3v90.1l-76.8 44.3zm-25-332.6l76.6 44.2-76 43.2-76-43.9 75.4-43.5zm-94.5 54.5l75.9 43.8-78.7 44.7L75 153.5l78.1-45.1zM50 306.7l76.1 43.9V440L50 396.1v-89.4zm318.4 133.7v-87.2l76.8-44.3v87.2l-76.8 44.3z" id="svg_1" class="selected" fill-opacity="1"/></g></svg>
