<svg xmlns="http://www.w3.org/2000/svg" xmlns:xlink="http://www.w3.org/1999/xlink" version="1.1" x="0px" y="0px" viewBox="0 0 48 60" enable-background="new 0 0 48 48" xml:space="preserve"><g><path fill="#000000" d="M45.5,47.5H2.5c-1.1,0-2-0.9-2-2V2.5c0-1.1,0.9-2,2-2h43.1c1.1,0,2,0.9,2,2v43.1   C47.5,46.6,46.6,47.5,45.5,47.5z M4.4,43.6h39.2V4.4H4.4V43.6z"/><path fill="#000000" d="M45.5,23H2.5c-1.1,0-2-0.9-2-2s0.9-2,2-2h43.1c1.1,0,2,0.9,2,2S46.6,23,45.5,23z"/><path fill="#000000" d="M24,47.5c-1.1,0-2-0.9-2-2V21.1c0-1.1,0.9-2,2-2c1.1,0,2,0.9,2,2v24.5C26,46.6,25.1,47.5,24,47.5z"/></g></svg>
