<svg xmlns="http://www.w3.org/2000/svg" viewBox="0 0 100 125"><path fill-rule="evenodd" clip-rule="evenodd" d="M93.047 8.001H6.953C5.875 8.001 5 8.942 5 10.11v79.78C5 91.055 5.875 92 6.953 92h86.094C94.128 92 95 91.055 95 89.89V10.11c0-1.168-.872-2.109-1.953-2.109zm-53.639 5.25l21.073-.047v32.088H39.408V13.251zm-6.667 73.5H11.95c-.954 0-1.95-.791-1.95-1.818V69.409h22.741v17.342zm0-23.326H10V39.501l22.741-.023v23.947zm0-29.932L10 33.2V15.065c0-1.023.996-1.814 1.95-1.814h20.791v20.242zm6.667 53.258v-34.46h21.073v34.506l-21.073-.046zM90 84.933c0 1.027-.999 1.818-1.95 1.818H67.148V69.409H90v15.524zm0-21.508H67.148V39.478L90 39.501v23.924zM90 33.2l-22.852.293V13.251H88.05c.951 0 1.95.791 1.95 1.814V33.2z"/><path d="M54.39 64.136c0 2.681-2.154 4.853-4.81 4.853-2.657 0-4.809-2.172-4.809-4.853 0-2.689 2.152-4.861 4.809-4.861 2.655-.001 4.81 2.171 4.81 4.861zM58 78.274c-.87-5.151-3.08-9.075-8.431-9.075-5.35 0-7.443 3.924-8.317 9.075H58zM82.82 47.55c0 2.36-1.896 4.273-4.234 4.273-2.34 0-4.234-1.913-4.234-4.273 0-2.368 1.895-4.28 4.234-4.28 2.338 0 4.234 1.912 4.234 4.28zM86 60c-.767-4.536-2.712-7.991-7.424-7.991-4.711 0-6.554 3.455-7.324 7.991H86z"/><g><path d="M24.372 19.703c0 2.116-1.7 3.831-3.796 3.831-2.098 0-3.797-1.715-3.797-3.831 0-2.123 1.699-3.838 3.797-3.838 2.096 0 3.796 1.715 3.796 3.838zM27.223 30.865c-.688-4.066-2.432-7.165-6.656-7.165-4.223 0-5.876 3.099-6.566 7.165h13.222z"/></g></svg>
